<svg width="480" height="608" viewBox="0 0 480 608" fill="none" xmlns="http://www.w3.org/2000/svg">
<rect width="480" height="608" fill="#F9F9FF"/>
<path d="M240.484 374.479C217.046 374.479 193.608 374.479 170.169 374.479C169.025 374.479 167.865 374.479 166.715 374.36C160.847 373.813 158.488 369.86 160.99 364.515C163.162 359.901 165.531 355.405 167.83 350.84C178.687 329.346 189.544 307.856 200.402 286.368C200.737 285.712 201.088 285.056 201.477 284.429C204.211 280.047 208.653 279.43 212.152 283.21C214.619 285.855 216.707 288.826 218.908 291.693C230.094 306.311 241.28 320.935 252.466 335.566C257.352 341.932 263.506 342.278 269.246 336.553C272.093 333.71 274.876 330.794 277.758 327.976C282.955 322.893 288.852 323.199 293.097 329.126C301.615 341.019 309.92 353.071 318.265 365.082C318.918 366.025 319.417 367.064 319.746 368.162C320.555 370.921 319.41 373.141 316.612 373.877C314.858 374.297 313.056 374.491 311.253 374.454C287.676 374.494 264.087 374.502 240.484 374.479Z" fill="#D4D2E3"/>
<path d="M293.047 256.704C293.041 261.292 291.673 265.774 289.116 269.583C286.56 273.393 282.93 276.357 278.686 278.101C274.443 279.844 269.777 280.288 265.281 279.377C260.784 278.466 256.66 276.24 253.43 272.982C250.201 269.724 248.011 265.58 247.139 261.076C246.267 256.572 246.752 251.91 248.533 247.682C250.314 243.454 253.31 239.85 257.141 237.327C260.973 234.804 265.467 233.475 270.055 233.509C276.164 233.587 281.997 236.062 286.298 240.401C290.599 244.739 293.023 250.595 293.047 256.704Z" fill="#D4D2E3"/>
</svg>
