<svg width="388" height="354" viewBox="0 0 388 354" fill="none" xmlns="http://www.w3.org/2000/svg">
<path d="M0 20C0 8.9543 8.95431 0 20 0H367.973C379.019 0 387.973 8.95431 387.973 20V354H0V20Z" fill="#F9F9FF"/>
<path d="M194.471 247.479C171.032 247.479 147.594 247.479 124.156 247.479C123.011 247.479 121.851 247.479 120.702 247.36C114.834 246.813 112.475 242.86 114.977 237.515C117.148 232.901 119.517 228.405 121.817 223.84C132.674 202.346 143.531 180.856 154.388 159.368C154.724 158.712 155.074 158.056 155.464 157.429C158.198 153.047 162.64 152.43 166.139 156.21C168.606 158.855 170.694 161.826 172.895 164.693C184.081 179.311 195.267 193.935 206.453 208.566C211.339 214.932 217.493 215.278 223.232 209.553C226.08 206.71 228.863 203.794 231.745 200.976C236.942 195.893 242.839 196.199 247.083 202.126C255.601 214.019 263.907 226.071 272.252 238.082C272.904 239.025 273.404 240.064 273.732 241.162C274.542 243.921 273.397 246.141 270.599 246.877C268.844 247.297 267.043 247.491 265.239 247.454C241.663 247.494 218.073 247.502 194.471 247.479Z" fill="#D4D2E3"/>
<path d="M247.034 129.704C247.028 134.292 245.66 138.774 243.103 142.583C240.546 146.393 236.916 149.357 232.673 151.101C228.429 152.844 223.764 153.288 219.267 152.377C214.771 151.466 210.647 149.24 207.417 145.982C204.187 142.724 201.998 138.58 201.126 134.076C200.254 129.572 200.739 124.91 202.52 120.682C204.3 116.454 207.296 112.85 211.128 110.327C214.959 107.804 219.454 106.475 224.041 106.509C230.15 106.587 235.984 109.062 240.285 113.401C244.586 117.739 247.01 123.595 247.034 129.704Z" fill="#D4D2E3"/>
</svg>
