<svg aria-hidden="true" style="position: absolute; width: 0; height: 0; overflow: hidden;" version="1.1" xmlns="http://www.w3.org/2000/svg" xmlns:xlink="http://www.w3.org/1999/xlink">
<defs>
<symbol id="icon-arrow" viewBox="0 0 32 32">
<path fill="none" stroke-linejoin="round" stroke-linecap="round" stroke-miterlimit="4" stroke-width="3" d="M16.578 3.308l12.69 12.692-12.688 12.692M29.268 16h-27"></path>
</symbol>
<symbol id="icon-chat" viewBox="0 0 32 32">
<path d="M18.31 29.026l0.722-1.221-1.721-1.019-0.723 1.221 1.722 1.019zM12.967 27.805l0.723 1.221 1.721-1.019-0.723-1.221-1.721 1.019zM16.588 28.007c-0.257 0.434-0.919 0.434-1.177 0l-1.721 1.019c1.031 1.743 3.587 1.743 4.619 0l-1.722-1.019zM14 3.667h4v-2h-4v2zM28.333 14v1.333h2v-1.333h-2zM3.667 15.333v-1.333h-2v1.333h2zM1.667 15.333c0 1.539-0.001 2.745 0.066 3.716 0.067 0.981 0.205 1.797 0.518 2.551l1.848-0.766c-0.195-0.47-0.31-1.043-0.37-1.922-0.061-0.888-0.061-2.013-0.061-3.58h-2zM10.403 24.322c-1.674-0.029-2.551-0.135-3.239-0.42l-0.765 1.849c1.073 0.445 2.296 0.543 3.97 0.572l0.034-2zM2.25 21.601c0.795 1.885 2.264 3.354 4.099 4.13l0.050 0.019 0.766-1.847c-1.393-0.587-2.479-1.674-3.053-3.030l-0.014-0.037-1.848 0.764zM28.333 15.334c0 1.567 0 2.692-0.061 3.58-0.060 0.879-0.176 1.451-0.37 1.922l1.847 0.765c0.313-0.754 0.451-1.571 0.518-2.551 0.066-0.971 0.066-2.177 0.066-3.716h-2zM21.631 26.322c1.674-0.029 2.897-0.127 3.97-0.572l-0.766-1.847c-0.687 0.285-1.564 0.391-3.238 0.42l0.034 1.999zM27.902 20.836c-0.587 1.393-1.674 2.479-3.029 3.052l-0.037 0.014 0.765 1.848c1.885-0.795 3.354-2.264 4.13-4.099l0.019-0.050-1.847-0.766zM18 3.667c2.202 0 3.783 0.001 5.016 0.118 1.218 0.115 1.994 0.338 2.611 0.717l1.045-1.705c-0.985-0.604-2.103-0.873-3.467-1.003-1.35-0.128-3.042-0.127-5.205-0.127v2zM30.333 14c0-2.163 0.001-3.855-0.127-5.206-0.13-1.364-0.399-2.482-1.003-3.467l-1.705 1.045c0.379 0.618 0.601 1.393 0.717 2.611 0.118 1.233 0.118 2.814 0.118 5.016h2zM25.627 4.502c0.767 0.475 1.396 1.104 1.857 1.847l0.014 0.024 1.705-1.045c-0.643-1.038-1.493-1.888-2.498-2.513l-0.033-0.019-1.045 1.706zM14 1.667c-2.163 0-3.855-0.001-5.206 0.127-1.364 0.13-2.482 0.399-3.467 1.003l1.045 1.705c0.618-0.379 1.393-0.601 2.611-0.717 1.233-0.118 2.814-0.118 5.016-0.118v-2zM3.667 14c0-2.202 0.001-3.783 0.118-5.016 0.115-1.218 0.338-1.994 0.717-2.611l-1.705-1.045c-0.604 0.985-0.873 2.103-1.003 3.467-0.128 1.35-0.127 3.042-0.127 5.205h2zM5.327 2.797c-1.038 0.643-1.888 1.493-2.513 2.499l-0.019 0.033 1.706 1.045c0.475-0.767 1.104-1.396 1.847-1.857l0.024-0.014-1.045-1.705zM14.689 26.786c-0.27-0.457-0.508-0.861-0.739-1.178-0.244-0.334-0.523-0.634-0.91-0.86l-1.006 1.729c0.063 0.037 0.149 0.103 0.299 0.309 0.162 0.222 0.345 0.529 0.634 1.019l1.721-1.019zM10.369 26.322c0.586 0.010 0.957 0.017 1.239 0.049 0.264 0.030 0.366 0.073 0.426 0.107l1.006-1.729c-0.39-0.227-0.797-0.32-1.212-0.366-0.397-0.044-0.877-0.051-1.425-0.061l-0.034 1.999zM19.033 27.805c0.29-0.49 0.473-0.797 0.634-1.019 0.149-0.205 0.235-0.272 0.299-0.309l-1.006-1.729c-0.387 0.225-0.666 0.526-0.909 0.86-0.231 0.317-0.469 0.72-0.74 1.178l1.721 1.019zM21.597 24.322c-0.549 0.009-1.028 0.017-1.425 0.061-0.415 0.046-0.822 0.139-1.211 0.366l1.005 1.729c0.060-0.035 0.162-0.078 0.426-0.107 0.283-0.031 0.654-0.038 1.239-0.049l-0.034-2z"></path>
<path stroke-linejoin="round" stroke-linecap="round" stroke-miterlimit="4" stroke-width="2.6669" d="M10.667 14.667h0.011M15.988 14.667h0.012M21.321 14.667h0.012"></path>
</symbol>
<symbol id="icon-earth" viewBox="0 0 32 32">
<path d="M32 16c0-8.837-7.163-16-16-16s-16 7.163-16 16c0 8.837 7.163 16 16 16v0h0.167c8.74-0.010 15.823-7.093 15.833-15.832v-0.168zM29.333 16c0 1.186-0.16 2.368-0.48 3.511-0.082 0.283-0.34 0.487-0.645 0.487-0.095 0-0.185-0.020-0.266-0.055l0.004 0.002c-0.823-0.356-1.525-0.942-2.023-1.689l-2.955-4.441c-0.606-0.9-1.622-1.484-2.773-1.484h-0.578c-1.991-0.045-3.587-1.67-3.587-3.667s1.596-3.621 3.583-3.667l0.004-0h3.696c0.139 0 0.272 0.044 0.386 0.124 3.425 2.443 5.633 6.403 5.634 10.878v0zM2.905 13.54c0.064-0.306 0.332-0.533 0.653-0.533 0.001 0 0.002 0 0.003 0h5.781c0.004 0 0.009-0 0.014-0 1.285 0 2.448 0.523 3.287 1.367l0 0 1.49 1.493c0.844 0.844 1.366 2.011 1.366 3.299 0 1.193-0.447 2.281-1.183 3.106l0.004-0.005-1.813 2.039c-0.522 0.586-0.841 1.362-0.841 2.213 0 0.001 0 0.001 0 0.002v-0 1.102c0 0 0 0 0 0.001 0 0.368-0.298 0.667-0.667 0.667-0.096 0-0.188-0.020-0.271-0.057l0.004 0.002c-4.78-2.094-8.060-6.78-8.066-12.234v-0.001c0-0.825 0.082-1.65 0.238-2.46z"></path>
</symbol>
<symbol id="icon-email" viewBox="0 0 32 32">
<path d="M31.655 13.138c-0.093-0.053-0.204-0.084-0.323-0.084-0.131 0-0.253 0.038-0.355 0.103l0.003-0.002-11.801 8.208c-0.903 0.569-2.001 0.906-3.179 0.906s-2.276-0.338-3.204-0.921l0.025 0.015-11.799-8.208c-0.101-0.064-0.224-0.103-0.356-0.103-0.368 0-0.667 0.298-0.667 0.667 0 0.001 0 0.001 0 0.001v-0 11.305c0 2.209 1.791 4 4 4v0h24c2.209 0 4-1.791 4-4v0-11.305c0-0 0-0.001 0-0.001 0-0.25-0.138-0.467-0.341-0.58l-0.003-0.002z"></path>
<path d="M32 7.692c0-2.209-1.791-4-4-4v0h-24c-2.209 0-4 1.791-4 4v0c0 0.001 0 0.001 0 0.002 0 0.070 0.037 0.132 0.092 0.167l0.001 0 14.841 10.112c0.301 0.19 0.666 0.303 1.059 0.303s0.758-0.113 1.067-0.307l-0.008 0.005 14.848-10.112c0.059-0.034 0.099-0.097 0.101-0.169v-0z"></path>
</symbol>
<symbol id="icon-phone" viewBox="0 0 32 32">
<path d="M30.844 22.944l-3.412-3.413c-0.708-0.709-1.687-1.148-2.768-1.148s-2.060 0.439-2.768 1.148l-0.695 0.697c-3.46-2.911-6.557-6.012-9.37-9.361l-0.095-0.116 0.697-0.695c0.707-0.709 1.144-1.687 1.144-2.768s-0.437-2.059-1.144-2.768l0 0-3.42-3.408c-0.719-0.688-1.696-1.112-2.772-1.112s-2.053 0.424-2.773 1.113l0.001-0.001-1.861 1.872c-0.995 1.001-1.609 2.381-1.609 3.904 0 1.134 0.341 2.188 0.925 3.066l-0.013-0.020c5.649 8.433 12.68 15.464 20.84 20.943l0.271 0.171c0.859 0.566 1.913 0.903 3.046 0.903 1.524 0 2.905-0.61 3.913-1.599l-0.001 0.001 1.87-1.872c0.709-0.708 1.148-1.686 1.148-2.767s-0.439-2.059-1.148-2.767l-0-0h-0.007z"></path>
</symbol>
</defs>
</svg>
